<?xml version="1.0" encoding="UTF-8" ?>
<svg version="1.1" width="810" height="810" xmlns="http://www.w3.org/2000/svg" shape-rendering="crispEdges">
<rect x="300" y="0" width="30" height="30" fill="#757077" />
<rect x="330" y="0" width="30" height="30" fill="#757077" />
<rect x="360" y="0" width="30" height="30" fill="#757077" />
<rect x="390" y="0" width="30" height="30" fill="#757077" />
<rect x="420" y="0" width="30" height="30" fill="#757077" />
<rect x="450" y="0" width="30" height="30" fill="#757077" />
<rect x="180" y="30" width="30" height="30" fill="#757077" />
<rect x="210" y="30" width="30" height="30" fill="#757077" />
<rect x="240" y="30" width="30" height="30" fill="#757077" />
<rect x="270" y="30" width="30" height="30" fill="#757077" />
<rect x="300" y="30" width="30" height="30" fill="#7D7781" />
<rect x="330" y="30" width="30" height="30" fill="#7D7781" />
<rect x="360" y="30" width="30" height="30" fill="#7D7781" />
<rect x="390" y="30" width="30" height="30" fill="#7D7781" />
<rect x="420" y="30" width="30" height="30" fill="#9A989B" />
<rect x="450" y="30" width="30" height="30" fill="#9A989B" />
<rect x="480" y="30" width="30" height="30" fill="#757077" />
<rect x="510" y="30" width="30" height="30" fill="#757077" />
<rect x="540" y="30" width="30" height="30" fill="#757077" />
<rect x="150" y="60" width="30" height="30" fill="#757077" />
<rect x="180" y="60" width="30" height="30" fill="#807C82" />
<rect x="210" y="60" width="30" height="30" fill="#6B6B6B" />
<rect x="240" y="60" width="30" height="30" fill="#6B6B6B" />
<rect x="270" y="60" width="30" height="30" fill="#7D7781" />
<rect x="300" y="60" width="30" height="30" fill="#7D7781" />
<rect x="330" y="60" width="30" height="30" fill="#7D7781" />
<rect x="360" y="60" width="30" height="30" fill="#847E87" />
<rect x="390" y="60" width="30" height="30" fill="#847E87" />
<rect x="420" y="60" width="30" height="30" fill="#847E87" />
<rect x="450" y="60" width="30" height="30" fill="#847E87" />
<rect x="480" y="60" width="30" height="30" fill="#9A989B" />
<rect x="510" y="60" width="30" height="30" fill="#9A989B" />
<rect x="540" y="60" width="30" height="30" fill="#9A989B" />
<rect x="570" y="60" width="30" height="30" fill="#9A989B" />
<rect x="600" y="60" width="30" height="30" fill="#757077" />
<rect x="630" y="60" width="30" height="30" fill="#757077" />
<rect x="120" y="90" width="30" height="30" fill="#757077" />
<rect x="150" y="90" width="30" height="30" fill="#807C82" />
<rect x="180" y="90" width="30" height="30" fill="#6B6B6B" />
<rect x="210" y="90" width="30" height="30" fill="#585758" />
<rect x="240" y="90" width="30" height="30" fill="#585758" />
<rect x="270" y="90" width="30" height="30" fill="#847E87" />
<rect x="300" y="90" width="30" height="30" fill="#847E87" />
<rect x="330" y="90" width="30" height="30" fill="#7D7781" />
<rect x="360" y="90" width="30" height="30" fill="#7D7781" />
<rect x="390" y="90" width="30" height="30" fill="#7D7781" />
<rect x="420" y="90" width="30" height="30" fill="#847E87" />
<rect x="450" y="90" width="30" height="30" fill="#847E87" />
<rect x="480" y="90" width="30" height="30" fill="#8F8A91" />
<rect x="510" y="90" width="30" height="30" fill="#8F8A91" />
<rect x="540" y="90" width="30" height="30" fill="#8F8A91" />
<rect x="570" y="90" width="30" height="30" fill="#8F8A91" />
<rect x="600" y="90" width="30" height="30" fill="#9A989B" />
<rect x="630" y="90" width="30" height="30" fill="#8F8A91" />
<rect x="660" y="90" width="30" height="30" fill="#757077" />
<rect x="120" y="120" width="30" height="30" fill="#757077" />
<rect x="150" y="120" width="30" height="30" fill="#6B6B6B" />
<rect x="180" y="120" width="30" height="30" fill="#585758" />
<rect x="210" y="120" width="30" height="30" fill="#5E5E5E" />
<rect x="240" y="120" width="30" height="30" fill="#847E87" />
<rect x="270" y="120" width="30" height="30" fill="#847E87" />
<rect x="300" y="120" width="30" height="30" fill="#847E87" />
<rect x="330" y="120" width="30" height="30" fill="#847E87" />
<rect x="360" y="120" width="30" height="30" fill="#847E87" />
<rect x="390" y="120" width="30" height="30" fill="#7D7781" />
<rect x="420" y="120" width="30" height="30" fill="#7D7781" />
<rect x="450" y="120" width="30" height="30" fill="#847E87" />
<rect x="480" y="120" width="30" height="30" fill="#847E87" />
<rect x="510" y="120" width="30" height="30" fill="#8F8A91" />
<rect x="540" y="120" width="30" height="30" fill="#6B6B6B" />
<rect x="570" y="120" width="30" height="30" fill="#6B6B6B" />
<rect x="600" y="120" width="30" height="30" fill="#8F8A91" />
<rect x="630" y="120" width="30" height="30" fill="#8F8A91" />
<rect x="660" y="120" width="30" height="30" fill="#8F8A91" />
<rect x="690" y="120" width="30" height="30" fill="#757077" />
<rect x="90" y="150" width="30" height="30" fill="#757077" />
<rect x="120" y="150" width="30" height="30" fill="#7F7C81" />
<rect x="150" y="150" width="30" height="30" fill="#585758" />
<rect x="180" y="150" width="30" height="30" fill="#847E87" />
<rect x="210" y="150" width="30" height="30" fill="#847E87" />
<rect x="240" y="150" width="30" height="30" fill="#847E87" />
<rect x="270" y="150" width="30" height="30" fill="#847E87" />
<rect x="300" y="150" width="30" height="30" fill="#79767A" />
<rect x="330" y="150" width="30" height="30" fill="#79767A" />
<rect x="360" y="150" width="30" height="30" fill="#847E87" />
<rect x="390" y="150" width="30" height="30" fill="#847E87" />
<rect x="420" y="150" width="30" height="30" fill="#7D7781" />
<rect x="450" y="150" width="30" height="30" fill="#847E87" />
<rect x="480" y="150" width="30" height="30" fill="#847E87" />
<rect x="510" y="150" width="30" height="30" fill="#847E87" />
<rect x="540" y="150" width="30" height="30" fill="#585758" />
<rect x="570" y="150" width="30" height="30" fill="#5E5E5E" />
<rect x="600" y="150" width="30" height="30" fill="#585758" />
<rect x="630" y="150" width="30" height="30" fill="#8F8A91" />
<rect x="660" y="150" width="30" height="30" fill="#8F8A91" />
<rect x="690" y="150" width="30" height="30" fill="#757077" />
<rect x="60" y="180" width="30" height="30" fill="#757077" />
<rect x="90" y="180" width="30" height="30" fill="#7F7C81" />
<rect x="120" y="180" width="30" height="30" fill="#7F7C81" />
<rect x="150" y="180" width="30" height="30" fill="#7F7C81" />
<rect x="180" y="180" width="30" height="30" fill="#7D7781" />
<rect x="210" y="180" width="30" height="30" fill="#7D7781" />
<rect x="240" y="180" width="30" height="30" fill="#847E87" />
<rect x="270" y="180" width="30" height="30" fill="#847E87" />
<rect x="300" y="180" width="30" height="30" fill="#847E87" />
<rect x="330" y="180" width="30" height="30" fill="#79767A" />
<rect x="360" y="180" width="30" height="30" fill="#79767A" />
<rect x="390" y="180" width="30" height="30" fill="#847E87" />
<rect x="420" y="180" width="30" height="30" fill="#847E87" />
<rect x="450" y="180" width="30" height="30" fill="#847E87" />
<rect x="480" y="180" width="30" height="30" fill="#79767A" />
<rect x="510" y="180" width="30" height="30" fill="#847E87" />
<rect x="540" y="180" width="30" height="30" fill="#847E87" />
<rect x="570" y="180" width="30" height="30" fill="#847E87" />
<rect x="600" y="180" width="30" height="30" fill="#585758" />
<rect x="630" y="180" width="30" height="30" fill="#585758" />
<rect x="660" y="180" width="30" height="30" fill="#8F8A91" />
<rect x="690" y="180" width="30" height="30" fill="#757077" />
<rect x="30" y="210" width="30" height="30" fill="#757077" />
<rect x="60" y="210" width="30" height="30" fill="#7F7C81" />
<rect x="90" y="210" width="30" height="30" fill="#7F7C81" />
<rect x="120" y="210" width="30" height="30" fill="#7F7C81" />
<rect x="150" y="210" width="30" height="30" fill="#7D7781" />
<rect x="180" y="210" width="30" height="30" fill="#7F7C81" />
<rect x="210" y="210" width="30" height="30" fill="#7F7C81" />
<rect x="240" y="210" width="30" height="30" fill="#847E87" />
<rect x="270" y="210" width="30" height="30" fill="#847E87" />
<rect x="300" y="210" width="30" height="30" fill="#847E87" />
<rect x="330" y="210" width="30" height="30" fill="#8F8A91" />
<rect x="360" y="210" width="30" height="30" fill="#8F8A91" />
<rect x="390" y="210" width="30" height="30" fill="#8F8A91" />
<rect x="420" y="210" width="30" height="30" fill="#847E87" />
<rect x="450" y="210" width="30" height="30" fill="#847E87" />
<rect x="480" y="210" width="30" height="30" fill="#79767A" />
<rect x="510" y="210" width="30" height="30" fill="#818182" />
<rect x="540" y="210" width="30" height="30" fill="#847E87" />
<rect x="570" y="210" width="30" height="30" fill="#847E87" />
<rect x="600" y="210" width="30" height="30" fill="#847E87" />
<rect x="630" y="210" width="30" height="30" fill="#8F8A91" />
<rect x="660" y="210" width="30" height="30" fill="#8F8A91" />
<rect x="690" y="210" width="30" height="30" fill="#8F8A91" />
<rect x="720" y="210" width="30" height="30" fill="#757077" />
<rect x="30" y="240" width="30" height="30" fill="#757077" />
<rect x="60" y="240" width="30" height="30" fill="#79767A" />
<rect x="90" y="240" width="30" height="30" fill="#7F7C81" />
<rect x="120" y="240" width="30" height="30" fill="#7F7C81" />
<rect x="150" y="240" width="30" height="30" fill="#7F7C81" />
<rect x="180" y="240" width="30" height="30" fill="#7F7C81" />
<rect x="210" y="240" width="30" height="30" fill="#847E87" />
<rect x="240" y="240" width="30" height="30" fill="#847E87" />
<rect x="270" y="240" width="30" height="30" fill="#8F8A91" />
<rect x="300" y="240" width="30" height="30" fill="#8F8A91" />
<rect x="330" y="240" width="30" height="30" fill="#6B6B6B" />
<rect x="360" y="240" width="30" height="30" fill="#585758" />
<rect x="390" y="240" width="30" height="30" fill="#585758" />
<rect x="420" y="240" width="30" height="30" fill="#847E87" />
<rect x="450" y="240" width="30" height="30" fill="#847E87" />
<rect x="480" y="240" width="30" height="30" fill="#818182" />
<rect x="510" y="240" width="30" height="30" fill="#818182" />
<rect x="540" y="240" width="30" height="30" fill="#847E87" />
<rect x="570" y="240" width="30" height="30" fill="#847E87" />
<rect x="600" y="240" width="30" height="30" fill="#847E87" />
<rect x="630" y="240" width="30" height="30" fill="#847E87" />
<rect x="660" y="240" width="30" height="30" fill="#7D7781" />
<rect x="690" y="240" width="30" height="30" fill="#7D7781" />
<rect x="720" y="240" width="30" height="30" fill="#757077" />
<rect x="30" y="270" width="30" height="30" fill="#757077" />
<rect x="60" y="270" width="30" height="30" fill="#7F7C81" />
<rect x="90" y="270" width="30" height="30" fill="#7F7C81" />
<rect x="120" y="270" width="30" height="30" fill="#847E87" />
<rect x="150" y="270" width="30" height="30" fill="#817687" />
<rect x="180" y="270" width="30" height="30" fill="#847E87" />
<rect x="210" y="270" width="30" height="30" fill="#847E87" />
<rect x="240" y="270" width="30" height="30" fill="#8F8A91" />
<rect x="270" y="270" width="30" height="30" fill="#6B6B6B" />
<rect x="300" y="270" width="30" height="30" fill="#585758" />
<rect x="330" y="270" width="30" height="30" fill="#5E5E5E" />
<rect x="360" y="270" width="30" height="30" fill="#585758" />
<rect x="390" y="270" width="30" height="30" fill="#585758" />
<rect x="420" y="270" width="30" height="30" fill="#4A4A4A" />
<rect x="450" y="270" width="30" height="30" fill="#847E87" />
<rect x="480" y="270" width="30" height="30" fill="#847E87" />
<rect x="510" y="270" width="30" height="30" fill="#847E87" />
<rect x="540" y="270" width="30" height="30" fill="#7D7781" />
<rect x="570" y="270" width="30" height="30" fill="#847E87" />
<rect x="600" y="270" width="30" height="30" fill="#79767A" />
<rect x="630" y="270" width="30" height="30" fill="#847E87" />
<rect x="660" y="270" width="30" height="30" fill="#847E87" />
<rect x="690" y="270" width="30" height="30" fill="#7D7781" />
<rect x="720" y="270" width="30" height="30" fill="#7D7781" />
<rect x="750" y="270" width="30" height="30" fill="#5D595F" />
<rect x="0" y="300" width="30" height="30" fill="#757077" />
<rect x="30" y="300" width="30" height="30" fill="#4A4A4A" />
<rect x="60" y="300" width="30" height="30" fill="#7F7C81" />
<rect x="90" y="300" width="30" height="30" fill="#847E87" />
<rect x="120" y="300" width="30" height="30" fill="#817687" />
<rect x="150" y="300" width="30" height="30" fill="#817687" />
<rect x="180" y="300" width="30" height="30" fill="#847E87" />
<rect x="210" y="300" width="30" height="30" fill="#847E87" />
<rect x="240" y="300" width="30" height="30" fill="#6B6B6B" />
<rect x="270" y="300" width="30" height="30" fill="#585758" />
<rect x="300" y="300" width="30" height="30" fill="#585758" />
<rect x="330" y="300" width="30" height="30" fill="#585758" />
<rect x="360" y="300" width="30" height="30" fill="#4A4A4A" />
<rect x="390" y="300" width="30" height="30" fill="#4A4A4A" />
<rect x="420" y="300" width="30" height="30" fill="#847E87" />
<rect x="450" y="300" width="30" height="30" fill="#847E87" />
<rect x="480" y="300" width="30" height="30" fill="#817687" />
<rect x="510" y="300" width="30" height="30" fill="#817687" />
<rect x="540" y="300" width="30" height="30" fill="#7D7781" />
<rect x="570" y="300" width="30" height="30" fill="#847E87" />
<rect x="600" y="300" width="30" height="30" fill="#79767A" />
<rect x="630" y="300" width="30" height="30" fill="#7F7C81" />
<rect x="660" y="300" width="30" height="30" fill="#7F7C81" />
<rect x="690" y="300" width="30" height="30" fill="#7D7781" />
<rect x="720" y="300" width="30" height="30" fill="#7D7781" />
<rect x="750" y="300" width="30" height="30" fill="#5D595F" />
<rect x="0" y="330" width="30" height="30" fill="#757077" />
<rect x="30" y="330" width="30" height="30" fill="#4A4A4A" />
<rect x="60" y="330" width="30" height="30" fill="#7F7C81" />
<rect x="90" y="330" width="30" height="30" fill="#817687" />
<rect x="120" y="330" width="30" height="30" fill="#817687" />
<rect x="150" y="330" width="30" height="30" fill="#847E87" />
<rect x="180" y="330" width="30" height="30" fill="#847E87" />
<rect x="210" y="330" width="30" height="30" fill="#8F8A91" />
<rect x="240" y="330" width="30" height="30" fill="#585758" />
<rect x="270" y="330" width="30" height="30" fill="#5E5E5E" />
<rect x="300" y="330" width="30" height="30" fill="#585758" />
<rect x="330" y="330" width="30" height="30" fill="#4A4A4A" />
<rect x="360" y="330" width="30" height="30" fill="#7D7781" />
<rect x="390" y="330" width="30" height="30" fill="#7D7781" />
<rect x="420" y="330" width="30" height="30" fill="#7D7781" />
<rect x="450" y="330" width="30" height="30" fill="#7D7781" />
<rect x="480" y="330" width="30" height="30" fill="#7D7781" />
<rect x="510" y="330" width="30" height="30" fill="#7D7781" />
<rect x="540" y="330" width="30" height="30" fill="#847E87" />
<rect x="570" y="330" width="30" height="30" fill="#847E87" />
<rect x="600" y="330" width="30" height="30" fill="#79767A" />
<rect x="630" y="330" width="30" height="30" fill="#79767A" />
<rect x="660" y="330" width="30" height="30" fill="#7F7C81" />
<rect x="690" y="330" width="30" height="30" fill="#847E87" />
<rect x="720" y="330" width="30" height="30" fill="#7D7781" />
<rect x="750" y="330" width="30" height="30" fill="#7D7781" />
<rect x="780" y="330" width="30" height="30" fill="#5D595F" />
<rect x="0" y="360" width="30" height="30" fill="#757077" />
<rect x="30" y="360" width="30" height="30" fill="#7F7C81" />
<rect x="60" y="360" width="30" height="30" fill="#7F7C81" />
<rect x="90" y="360" width="30" height="30" fill="#817687" />
<rect x="120" y="360" width="30" height="30" fill="#847E87" />
<rect x="150" y="360" width="30" height="30" fill="#847E87" />
<rect x="180" y="360" width="30" height="30" fill="#847E87" />
<rect x="210" y="360" width="30" height="30" fill="#847E87" />
<rect x="240" y="360" width="30" height="30" fill="#4A4A4A" />
<rect x="270" y="360" width="30" height="30" fill="#4A4A4A" />
<rect x="300" y="360" width="30" height="30" fill="#4A4A4A" />
<rect x="330" y="360" width="30" height="30" fill="#847E87" />
<rect x="360" y="360" width="30" height="30" fill="#7D7781" />
<rect x="390" y="360" width="30" height="30" fill="#7D7781" />
<rect x="420" y="360" width="30" height="30" fill="#7D7781" />
<rect x="450" y="360" width="30" height="30" fill="#7D7781" />
<rect x="480" y="360" width="30" height="30" fill="#7D7781" />
<rect x="510" y="360" width="30" height="30" fill="#7D7781" />
<rect x="540" y="360" width="30" height="30" fill="#847E87" />
<rect x="570" y="360" width="30" height="30" fill="#847E87" />
<rect x="600" y="360" width="30" height="30" fill="#847E87" />
<rect x="630" y="360" width="30" height="30" fill="#847E87" />
<rect x="660" y="360" width="30" height="30" fill="#7F7C81" />
<rect x="690" y="360" width="30" height="30" fill="#847E87" />
<rect x="720" y="360" width="30" height="30" fill="#7D7781" />
<rect x="750" y="360" width="30" height="30" fill="#7D7781" />
<rect x="780" y="360" width="30" height="30" fill="#5D595F" />
<rect x="0" y="390" width="30" height="30" fill="#757077" />
<rect x="30" y="390" width="30" height="30" fill="#7F7C81" />
<rect x="60" y="390" width="30" height="30" fill="#847E87" />
<rect x="90" y="390" width="30" height="30" fill="#847E87" />
<rect x="120" y="390" width="30" height="30" fill="#79767A" />
<rect x="150" y="390" width="30" height="30" fill="#79767A" />
<rect x="180" y="390" width="30" height="30" fill="#847E87" />
<rect x="210" y="390" width="30" height="30" fill="#847E87" />
<rect x="240" y="390" width="30" height="30" fill="#847E87" />
<rect x="270" y="390" width="30" height="30" fill="#847E87" />
<rect x="300" y="390" width="30" height="30" fill="#847E87" />
<rect x="330" y="390" width="30" height="30" fill="#817687" />
<rect x="360" y="390" width="30" height="30" fill="#817687" />
<rect x="390" y="390" width="30" height="30" fill="#817687" />
<rect x="420" y="390" width="30" height="30" fill="#847E87" />
<rect x="450" y="390" width="30" height="30" fill="#7D7781" />
<rect x="480" y="390" width="30" height="30" fill="#7D7781" />
<rect x="510" y="390" width="30" height="30" fill="#847E87" />
<rect x="540" y="390" width="30" height="30" fill="#847E87" />
<rect x="570" y="390" width="30" height="30" fill="#847E87" />
<rect x="600" y="390" width="30" height="30" fill="#847E87" />
<rect x="630" y="390" width="30" height="30" fill="#847E87" />
<rect x="660" y="390" width="30" height="30" fill="#847E87" />
<rect x="690" y="390" width="30" height="30" fill="#847E87" />
<rect x="720" y="390" width="30" height="30" fill="#7D7781" />
<rect x="750" y="390" width="30" height="30" fill="#7D7781" />
<rect x="780" y="390" width="30" height="30" fill="#5D595F" />
<rect x="0" y="420" width="30" height="30" fill="#757077" />
<rect x="30" y="420" width="30" height="30" fill="#7F7C81" />
<rect x="60" y="420" width="30" height="30" fill="#847E87" />
<rect x="90" y="420" width="30" height="30" fill="#847E87" />
<rect x="120" y="420" width="30" height="30" fill="#79767A" />
<rect x="150" y="420" width="30" height="30" fill="#847E87" />
<rect x="180" y="420" width="30" height="30" fill="#7F7C81" />
<rect x="210" y="420" width="30" height="30" fill="#847E87" />
<rect x="240" y="420" width="30" height="30" fill="#847E87" />
<rect x="270" y="420" width="30" height="30" fill="#7D7781" />
<rect x="300" y="420" width="30" height="30" fill="#7D7781" />
<rect x="330" y="420" width="30" height="30" fill="#7D7781" />
<rect x="360" y="420" width="30" height="30" fill="#817687" />
<rect x="390" y="420" width="30" height="30" fill="#817687" />
<rect x="420" y="420" width="30" height="30" fill="#847E87" />
<rect x="450" y="420" width="30" height="30" fill="#847E87" />
<rect x="480" y="420" width="30" height="30" fill="#847E87" />
<rect x="510" y="420" width="30" height="30" fill="#847E87" />
<rect x="540" y="420" width="30" height="30" fill="#847E87" />
<rect x="570" y="420" width="30" height="30" fill="#8F8A91" />
<rect x="600" y="420" width="30" height="30" fill="#4A4A4A" />
<rect x="630" y="420" width="30" height="30" fill="#847E87" />
<rect x="660" y="420" width="30" height="30" fill="#847E87" />
<rect x="690" y="420" width="30" height="30" fill="#847E87" />
<rect x="720" y="420" width="30" height="30" fill="#7D7781" />
<rect x="750" y="420" width="30" height="30" fill="#5D595F" />
<rect x="0" y="450" width="30" height="30" fill="#757077" />
<rect x="30" y="450" width="30" height="30" fill="#847E87" />
<rect x="60" y="450" width="30" height="30" fill="#847E87" />
<rect x="90" y="450" width="30" height="30" fill="#79767A" />
<rect x="120" y="450" width="30" height="30" fill="#79767A" />
<rect x="150" y="450" width="30" height="30" fill="#847E87" />
<rect x="180" y="450" width="30" height="30" fill="#7F7C81" />
<rect x="210" y="450" width="30" height="30" fill="#847E87" />
<rect x="240" y="450" width="30" height="30" fill="#847E87" />
<rect x="270" y="450" width="30" height="30" fill="#847E87" />
<rect x="300" y="450" width="30" height="30" fill="#847E87" />
<rect x="330" y="450" width="30" height="30" fill="#847E87" />
<rect x="360" y="450" width="30" height="30" fill="#847E87" />
<rect x="390" y="450" width="30" height="30" fill="#817687" />
<rect x="420" y="450" width="30" height="30" fill="#7F7C81" />
<rect x="450" y="450" width="30" height="30" fill="#7F7C81" />
<rect x="480" y="450" width="30" height="30" fill="#7F7C81" />
<rect x="510" y="450" width="30" height="30" fill="#847E87" />
<rect x="540" y="450" width="30" height="30" fill="#847E87" />
<rect x="570" y="450" width="30" height="30" fill="#4A4A4A" />
<rect x="600" y="450" width="30" height="30" fill="#4A4A4A" />
<rect x="630" y="450" width="30" height="30" fill="#847E87" />
<rect x="660" y="450" width="30" height="30" fill="#847E87" />
<rect x="690" y="450" width="30" height="30" fill="#847E87" />
<rect x="720" y="450" width="30" height="30" fill="#646166" />
<rect x="750" y="450" width="30" height="30" fill="#5D595F" />
<rect x="30" y="480" width="30" height="30" fill="#757077" />
<rect x="60" y="480" width="30" height="30" fill="#847E87" />
<rect x="90" y="480" width="30" height="30" fill="#847E87" />
<rect x="120" y="480" width="30" height="30" fill="#847E87" />
<rect x="150" y="480" width="30" height="30" fill="#847E87" />
<rect x="180" y="480" width="30" height="30" fill="#847E87" />
<rect x="210" y="480" width="30" height="30" fill="#7F7C81" />
<rect x="240" y="480" width="30" height="30" fill="#847E87" />
<rect x="270" y="480" width="30" height="30" fill="#8F8A91" />
<rect x="300" y="480" width="30" height="30" fill="#8F8A91" />
<rect x="330" y="480" width="30" height="30" fill="#8F8A91" />
<rect x="360" y="480" width="30" height="30" fill="#847E87" />
<rect x="390" y="480" width="30" height="30" fill="#847E87" />
<rect x="420" y="480" width="30" height="30" fill="#847E87" />
<rect x="450" y="480" width="30" height="30" fill="#847E87" />
<rect x="480" y="480" width="30" height="30" fill="#7F7C81" />
<rect x="510" y="480" width="30" height="30" fill="#847E87" />
<rect x="540" y="480" width="30" height="30" fill="#4A4A4A" />
<rect x="570" y="480" width="30" height="30" fill="#4A4A4A" />
<rect x="600" y="480" width="30" height="30" fill="#847E87" />
<rect x="630" y="480" width="30" height="30" fill="#847E87" />
<rect x="660" y="480" width="30" height="30" fill="#79767A" />
<rect x="690" y="480" width="30" height="30" fill="#79767A" />
<rect x="720" y="480" width="30" height="30" fill="#646166" />
<rect x="750" y="480" width="30" height="30" fill="#5D595F" />
<rect x="30" y="510" width="30" height="30" fill="#757077" />
<rect x="60" y="510" width="30" height="30" fill="#847E87" />
<rect x="90" y="510" width="30" height="30" fill="#847E87" />
<rect x="120" y="510" width="30" height="30" fill="#7D7781" />
<rect x="150" y="510" width="30" height="30" fill="#817687" />
<rect x="180" y="510" width="30" height="30" fill="#847E87" />
<rect x="210" y="510" width="30" height="30" fill="#847E87" />
<rect x="240" y="510" width="30" height="30" fill="#8F8A91" />
<rect x="270" y="510" width="30" height="30" fill="#9D98A0" />
<rect x="300" y="510" width="30" height="30" fill="#585758" />
<rect x="330" y="510" width="30" height="30" fill="#585758" />
<rect x="360" y="510" width="30" height="30" fill="#8F8A91" />
<rect x="390" y="510" width="30" height="30" fill="#847E87" />
<rect x="420" y="510" width="30" height="30" fill="#847E87" />
<rect x="450" y="510" width="30" height="30" fill="#847E87" />
<rect x="480" y="510" width="30" height="30" fill="#7F7C81" />
<rect x="510" y="510" width="30" height="30" fill="#847E87" />
<rect x="540" y="510" width="30" height="30" fill="#847E87" />
<rect x="570" y="510" width="30" height="30" fill="#818182" />
<rect x="600" y="510" width="30" height="30" fill="#847E87" />
<rect x="630" y="510" width="30" height="30" fill="#847E87" />
<rect x="660" y="510" width="30" height="30" fill="#847E87" />
<rect x="690" y="510" width="30" height="30" fill="#6C696D" />
<rect x="720" y="510" width="30" height="30" fill="#646166" />
<rect x="750" y="510" width="30" height="30" fill="#5D595F" />
<rect x="30" y="540" width="30" height="30" fill="#757077" />
<rect x="60" y="540" width="30" height="30" fill="#847E87" />
<rect x="90" y="540" width="30" height="30" fill="#847E87" />
<rect x="120" y="540" width="30" height="30" fill="#7D7781" />
<rect x="150" y="540" width="30" height="30" fill="#7D7781" />
<rect x="180" y="540" width="30" height="30" fill="#847E87" />
<rect x="210" y="540" width="30" height="30" fill="#847E87" />
<rect x="240" y="540" width="30" height="30" fill="#8F8A91" />
<rect x="270" y="540" width="30" height="30" fill="#585758" />
<rect x="300" y="540" width="30" height="30" fill="#585758" />
<rect x="330" y="540" width="30" height="30" fill="#5E5E5E" />
<rect x="360" y="540" width="30" height="30" fill="#585758" />
<rect x="390" y="540" width="30" height="30" fill="#4A4A4A" />
<rect x="420" y="540" width="30" height="30" fill="#847E87" />
<rect x="450" y="540" width="30" height="30" fill="#847E87" />
<rect x="480" y="540" width="30" height="30" fill="#7F7C81" />
<rect x="510" y="540" width="30" height="30" fill="#847E87" />
<rect x="540" y="540" width="30" height="30" fill="#818182" />
<rect x="570" y="540" width="30" height="30" fill="#7F7C81" />
<rect x="600" y="540" width="30" height="30" fill="#7F7C81" />
<rect x="630" y="540" width="30" height="30" fill="#7F7C81" />
<rect x="660" y="540" width="30" height="30" fill="#6C696D" />
<rect x="690" y="540" width="30" height="30" fill="#878388" />
<rect x="720" y="540" width="30" height="30" fill="#585758" />
<rect x="60" y="570" width="30" height="30" fill="#757077" />
<rect x="90" y="570" width="30" height="30" fill="#847E87" />
<rect x="120" y="570" width="30" height="30" fill="#847E87" />
<rect x="150" y="570" width="30" height="30" fill="#847E87" />
<rect x="180" y="570" width="30" height="30" fill="#847E87" />
<rect x="210" y="570" width="30" height="30" fill="#847E87" />
<rect x="240" y="570" width="30" height="30" fill="#847E87" />
<rect x="270" y="570" width="30" height="30" fill="#847E87" />
<rect x="300" y="570" width="30" height="30" fill="#4A4A4A" />
<rect x="330" y="570" width="30" height="30" fill="#4A4A4A" />
<rect x="360" y="570" width="30" height="30" fill="#4A4A4A" />
<rect x="390" y="570" width="30" height="30" fill="#4A4A4A" />
<rect x="420" y="570" width="30" height="30" fill="#847E87" />
<rect x="450" y="570" width="30" height="30" fill="#7F7C81" />
<rect x="480" y="570" width="30" height="30" fill="#7F7C81" />
<rect x="510" y="570" width="30" height="30" fill="#7F7C81" />
<rect x="540" y="570" width="30" height="30" fill="#7F7C81" />
<rect x="570" y="570" width="30" height="30" fill="#7F7C81" />
<rect x="600" y="570" width="30" height="30" fill="#847E87" />
<rect x="630" y="570" width="30" height="30" fill="#746F77" />
<rect x="660" y="570" width="30" height="30" fill="#646166" />
<rect x="690" y="570" width="30" height="30" fill="#585758" />
<rect x="90" y="600" width="30" height="30" fill="#757077" />
<rect x="120" y="600" width="30" height="30" fill="#847E87" />
<rect x="150" y="600" width="30" height="30" fill="#847E87" />
<rect x="180" y="600" width="30" height="30" fill="#585758" />
<rect x="210" y="600" width="30" height="30" fill="#4A4A4A" />
<rect x="240" y="600" width="30" height="30" fill="#847E87" />
<rect x="270" y="600" width="30" height="30" fill="#847E87" />
<rect x="300" y="600" width="30" height="30" fill="#847E87" />
<rect x="330" y="600" width="30" height="30" fill="#847E87" />
<rect x="360" y="600" width="30" height="30" fill="#847E87" />
<rect x="390" y="600" width="30" height="30" fill="#847E87" />
<rect x="420" y="600" width="30" height="30" fill="#847E87" />
<rect x="450" y="600" width="30" height="30" fill="#847E87" />
<rect x="480" y="600" width="30" height="30" fill="#7F7C81" />
<rect x="510" y="600" width="30" height="30" fill="#7F7C81" />
<rect x="540" y="600" width="30" height="30" fill="#7F7C81" />
<rect x="570" y="600" width="30" height="30" fill="#847E87" />
<rect x="600" y="600" width="30" height="30" fill="#6C696D" />
<rect x="630" y="600" width="30" height="30" fill="#646166" />
<rect x="660" y="600" width="30" height="30" fill="#646166" />
<rect x="690" y="600" width="30" height="30" fill="#5D595F" />
<rect x="90" y="630" width="30" height="30" fill="#757077" />
<rect x="120" y="630" width="30" height="30" fill="#847E87" />
<rect x="150" y="630" width="30" height="30" fill="#847E87" />
<rect x="180" y="630" width="30" height="30" fill="#847E87" />
<rect x="210" y="630" width="30" height="30" fill="#847E87" />
<rect x="240" y="630" width="30" height="30" fill="#847E87" />
<rect x="270" y="630" width="30" height="30" fill="#847E87" />
<rect x="300" y="630" width="30" height="30" fill="#847E87" />
<rect x="330" y="630" width="30" height="30" fill="#847E87" />
<rect x="360" y="630" width="30" height="30" fill="#7F7C81" />
<rect x="390" y="630" width="30" height="30" fill="#7F7C81" />
<rect x="420" y="630" width="30" height="30" fill="#847E87" />
<rect x="450" y="630" width="30" height="30" fill="#7F7C81" />
<rect x="480" y="630" width="30" height="30" fill="#7F7C81" />
<rect x="510" y="630" width="30" height="30" fill="#7F7C81" />
<rect x="540" y="630" width="30" height="30" fill="#847E87" />
<rect x="570" y="630" width="30" height="30" fill="#6C696D" />
<rect x="600" y="630" width="30" height="30" fill="#646166" />
<rect x="630" y="630" width="30" height="30" fill="#5D595F" />
<rect x="660" y="630" width="30" height="30" fill="#5D595F" />
<rect x="120" y="660" width="30" height="30" fill="#757077" />
<rect x="150" y="660" width="30" height="30" fill="#847E87" />
<rect x="180" y="660" width="30" height="30" fill="#847E87" />
<rect x="210" y="660" width="30" height="30" fill="#817687" />
<rect x="240" y="660" width="30" height="30" fill="#847E87" />
<rect x="270" y="660" width="30" height="30" fill="#7F7C81" />
<rect x="300" y="660" width="30" height="30" fill="#7F7C81" />
<rect x="330" y="660" width="30" height="30" fill="#7F7C81" />
<rect x="360" y="660" width="30" height="30" fill="#7F7C81" />
<rect x="390" y="660" width="30" height="30" fill="#7F7C81" />
<rect x="420" y="660" width="30" height="30" fill="#7F7C81" />
<rect x="450" y="660" width="30" height="30" fill="#7F7C81" />
<rect x="480" y="660" width="30" height="30" fill="#7F7C81" />
<rect x="510" y="660" width="30" height="30" fill="#847E87" />
<rect x="540" y="660" width="30" height="30" fill="#847E87" />
<rect x="570" y="660" width="30" height="30" fill="#646166" />
<rect x="600" y="660" width="30" height="30" fill="#5D595F" />
<rect x="150" y="690" width="30" height="30" fill="#585758" />
<rect x="180" y="690" width="30" height="30" fill="#585758" />
<rect x="210" y="690" width="30" height="30" fill="#847E87" />
<rect x="240" y="690" width="30" height="30" fill="#847E87" />
<rect x="270" y="690" width="30" height="30" fill="#847E87" />
<rect x="300" y="690" width="30" height="30" fill="#847E87" />
<rect x="330" y="690" width="30" height="30" fill="#847E87" />
<rect x="360" y="690" width="30" height="30" fill="#7F7C81" />
<rect x="390" y="690" width="30" height="30" fill="#7F7C81" />
<rect x="420" y="690" width="30" height="30" fill="#7F7C81" />
<rect x="450" y="690" width="30" height="30" fill="#847E87" />
<rect x="480" y="690" width="30" height="30" fill="#847E87" />
<rect x="510" y="690" width="30" height="30" fill="#6C696D" />
<rect x="540" y="690" width="30" height="30" fill="#6C696D" />
<rect x="570" y="690" width="30" height="30" fill="#757077" />
<rect x="600" y="690" width="30" height="30" fill="#5D595F" />
<rect x="210" y="720" width="30" height="30" fill="#585758" />
<rect x="240" y="720" width="30" height="30" fill="#6C696D" />
<rect x="270" y="720" width="30" height="30" fill="#6C696D" />
<rect x="300" y="720" width="30" height="30" fill="#6C696D" />
<rect x="330" y="720" width="30" height="30" fill="#6C696D" />
<rect x="360" y="720" width="30" height="30" fill="#6C696D" />
<rect x="390" y="720" width="30" height="30" fill="#6C696D" />
<rect x="420" y="720" width="30" height="30" fill="#4A4A4A" />
<rect x="450" y="720" width="30" height="30" fill="#4A4A4A" />
<rect x="480" y="720" width="30" height="30" fill="#6C696D" />
<rect x="510" y="720" width="30" height="30" fill="#646166" />
<rect x="540" y="720" width="30" height="30" fill="#646166" />
<rect x="570" y="720" width="30" height="30" fill="#5D595F" />
<rect x="240" y="750" width="30" height="30" fill="#585758" />
<rect x="270" y="750" width="30" height="30" fill="#646166" />
<rect x="300" y="750" width="30" height="30" fill="#646166" />
<rect x="330" y="750" width="30" height="30" fill="#646166" />
<rect x="360" y="750" width="30" height="30" fill="#646166" />
<rect x="390" y="750" width="30" height="30" fill="#646166" />
<rect x="420" y="750" width="30" height="30" fill="#646166" />
<rect x="450" y="750" width="30" height="30" fill="#646166" />
<rect x="480" y="750" width="30" height="30" fill="#646166" />
<rect x="510" y="750" width="30" height="30" fill="#5D595F" />
<rect x="540" y="750" width="30" height="30" fill="#5D595F" />
<rect x="270" y="780" width="30" height="30" fill="#5D595F" />
<rect x="300" y="780" width="30" height="30" fill="#5D595F" />
<rect x="330" y="780" width="30" height="30" fill="#5D595F" />
<rect x="360" y="780" width="30" height="30" fill="#5D595F" />
<rect x="390" y="780" width="30" height="30" fill="#5D595F" />
<rect x="420" y="780" width="30" height="30" fill="#5D595F" />
<rect x="450" y="780" width="30" height="30" fill="#5D595F" />
<rect x="480" y="780" width="30" height="30" fill="#5D595F" />
</svg>